<svg xmlns="http://www.w3.org/2000/svg" xmlns:xlink="http://www.w3.org/1999/xlink" width="500" zoomAndPan="magnify" viewBox="0 0 375 374.999991" height="500" preserveAspectRatio="xMidYMid meet" version="1.0"><defs><filter x="0%" y="0%" width="100%" height="100%" id="id1"><feColorMatrix values="0 0 0 0 1 0 0 0 0 1 0 0 0 0 1 0 0 0 1 0" color-interpolation-filters="sRGB"/></filter><g/><clipPath id="id2"><path d="M 99.921875 99.921875 L 275.421875 99.921875 L 275.421875 275.421875 L 99.921875 275.421875 Z M 99.921875 99.921875 " clip-rule="nonzero"/></clipPath><mask id="id3"><g filter="url(#id1)"><rect x="-37.5" width="450" fill="#000000" y="-37.499999" height="449.999989" fill-opacity="0.2784"/></g></mask><clipPath id="id4"><path d="M 7 86 L 62 86 L 62 150.5 L 7 150.5 Z M 7 86 " clip-rule="nonzero"/></clipPath><clipPath id="id5"><path d="M 57 0.5 L 90 0.5 L 90 27 L 57 27 Z M 57 0.5 " clip-rule="nonzero"/></clipPath><clipPath id="id6"><rect x="0" width="143" y="0" height="151"/></clipPath></defs><g clip-path="url(#id2)"><path fill="#9d5977" d="M 137.636719 99.921875 L 275.425781 99.921875 L 275.425781 275.425781 L 99.921875 275.425781 L 99.921875 248.914062 C 100.378906 249.496094 100.839844 250.078125 101.304688 250.65625 L 101.304688 274.039062 L 274.035156 274.039062 L 274.035156 101.304688 L 136.832031 101.304688 C 137.097656 100.859375 137.355469 100.414062 137.609375 99.964844 Z M 137.636719 99.921875 " fill-opacity="1" fill-rule="evenodd"/></g><g mask="url(#id3)"><g transform="matrix(1, 0, 0, 1, 118, 112)"><g clip-path="url(#id6)"><g clip-path="url(#id4)"><path fill="#9d5977" d="M 7.03125 150.484375 C 7.433594 149.324219 7.925781 148.1875 8.636719 147.191406 C 18.164062 133.519531 28.003906 120.082031 37.546875 106.421875 C 40.738281 101.707031 44.167969 97.167969 47.597656 92.636719 C 49.039062 90.921875 50.398438 89.085938 52.152344 87.691406 C 54.777344 85.65625 58.933594 86.597656 60.574219 89.539062 C 62.507812 93.566406 61.242188 98.351562 58.472656 101.574219 C 51.265625 109.910156 43.292969 117.484375 35.347656 125.054688 C 27.769531 132.453125 20.066406 139.714844 12.179688 146.761719 C 10.511719 148.0625 9.023438 149.707031 7.03125 150.484375 Z M 7.03125 150.484375 " fill-opacity="1" fill-rule="nonzero"/></g><path fill="#9d5977" d="M 55.773438 79.835938 C 56.539062 77.136719 59.878906 75.074219 63.039062 73.417969 C 76.726562 73.625 87.171875 79.320312 96.699219 84.679688 C 101.148438 87.359375 106.277344 90.328125 106.460938 94.941406 C 105.949219 97.179688 104.34375 99.339844 102.664062 101.378906 C 94.714844 110.390625 83.148438 117.753906 71.417969 124.535156 C 66.285156 127.398438 61.425781 130.523438 56.101562 133.203125 L 54.90625 133.378906 C 57.773438 129.808594 61.800781 126.6875 64.925781 123.214844 C 72.824219 114.464844 80.445312 105.613281 89.132812 97.160156 C 84.203125 95.726562 78.71875 95.0625 73.941406 93.425781 C 68.355469 91.570312 62.957031 89.3125 58.957031 86.097656 C 56.859375 84.453125 55.359375 82.253906 55.773438 79.835938 Z M 55.773438 79.835938 " fill-opacity="1" fill-rule="nonzero"/><path fill="#9d5977" d="M 79.148438 52.351562 C 77.175781 53.382812 76.339844 55.554688 75.789062 57.539062 C 79.28125 64.371094 86.375 68.261719 92.972656 71.773438 C 96.199219 73.367188 99.820312 75.238281 103.554688 74.226562 C 105.21875 73.433594 106.550781 72.109375 107.777344 70.777344 C 113.046875 64.625 116.117188 57.050781 118.683594 49.53125 C 119.722656 46.265625 121.042969 43.078125 121.886719 39.757812 L 121.734375 39.117188 C 119.582031 41.410156 118.0625 44.183594 116.050781 46.585938 C 110.976562 52.648438 105.753906 58.59375 101.113281 64.984375 C 98.765625 62.847656 96.902344 60.25 94.429688 58.238281 C 91.585938 55.875 88.472656 53.699219 84.929688 52.457031 C 83.105469 51.796875 80.980469 51.566406 79.148438 52.351562 Z M 79.148438 52.351562 " fill-opacity="1" fill-rule="nonzero"/><path fill="#9d5977" d="M 88.269531 17.210938 C 93.332031 16.738281 98.683594 18.820312 101.859375 22.84375 C 104.09375 25.367188 105.082031 28.722656 105.445312 32.011719 C 105.246094 35.824219 103.886719 39.6875 101.164062 42.441406 C 97.03125 47 89.953125 48.554688 84.261719 46.238281 C 76.472656 43.578125 71.890625 33.644531 75.78125 26.183594 C 77.933594 21.183594 82.925781 17.847656 88.269531 17.210938 Z M 88.269531 17.210938 " fill-opacity="1" fill-rule="nonzero"/><path fill="#9d5977" d="M 74.9375 50.082031 C 77.269531 48.730469 78.167969 46.707031 78.734375 44.910156 C 74.152344 40.085938 65.367188 38.621094 57.199219 37.34375 C 53.214844 36.820312 48.738281 36.167969 44.269531 37.949219 C 42.300781 39.027344 40.753906 40.46875 39.34375 41.886719 C 33.285156 48.34375 29.964844 55.433594 27.25 62.355469 C 26.160156 65.339844 24.734375 68.332031 23.878906 71.3125 L 24.097656 71.8125 C 26.585938 69.355469 28.277344 66.664062 30.589844 64.152344 C 36.410156 57.820312 42.421875 51.546875 47.707031 45.050781 C 50.65625 46.246094 53.046875 47.945312 56.140625 49.003906 C 59.703125 50.265625 63.585938 51.296875 67.9375 51.445312 C 70.179688 51.539062 72.761719 51.199219 74.9375 50.082031 Z M 74.9375 50.082031 " fill-opacity="1" fill-rule="nonzero"/><g clip-path="url(#id5)"><path fill="#9d5977" d="M 86.554688 21.441406 C 87.921875 20.878906 88.675781 19.265625 89.230469 17.761719 C 87.671875 11.902344 83.511719 7.914062 79.628906 4.289062 C 77.71875 2.613281 75.585938 0.667969 73.089844 0.992188 C 71.941406 1.40625 70.953125 2.285156 70.035156 3.1875 C 66.039062 7.386719 63.3125 12.996094 60.914062 18.625 C 59.921875 21.082031 58.757812 23.441406 57.882812 25.960938 L 57.914062 26.488281 C 59.527344 24.945312 60.777344 22.945312 62.308594 21.296875 C 66.167969 17.140625 70.113281 13.097656 73.730469 8.628906 C 75.023438 10.621094 75.957031 12.917969 77.34375 14.824219 C 78.929688 17.0625 80.710938 19.183594 82.859375 20.621094 C 83.960938 21.378906 85.300781 21.832031 86.554688 21.441406 Z M 86.554688 21.441406 " fill-opacity="1" fill-rule="nonzero"/></g><path fill="#9d5977" d="M 141.132812 47.714844 C 141.054688 47.828125 140.875 47.871094 140.601562 47.84375 C 140.324219 47.816406 139.957031 47.714844 139.492188 47.546875 C 139.03125 47.378906 138.484375 47.144531 137.855469 46.84375 C 137.222656 46.542969 136.519531 46.179688 135.746094 45.757812 C 134.96875 45.335938 134.136719 44.859375 133.246094 44.328125 C 132.359375 43.800781 131.429688 43.230469 130.457031 42.617188 C 129.488281 42 128.496094 41.355469 127.484375 40.679688 C 126.472656 40.003906 125.457031 39.3125 124.4375 38.601562 C 123.421875 37.886719 122.421875 37.171875 121.441406 36.453125 C 120.457031 35.734375 119.511719 35.023438 118.605469 34.324219 C 117.695312 33.621094 116.839844 32.945312 116.039062 32.289062 C 115.234375 31.636719 114.503906 31.019531 113.839844 30.433594 C 113.175781 29.851562 112.59375 29.316406 112.097656 28.828125 C 111.597656 28.335938 111.1875 27.90625 110.875 27.527344 C 110.558594 27.152344 110.339844 26.839844 110.21875 26.589844 C 110.097656 26.339844 110.078125 26.160156 110.15625 26.046875 C 110.234375 25.933594 110.414062 25.890625 110.6875 25.917969 C 110.964844 25.945312 111.332031 26.042969 111.796875 26.210938 C 112.257812 26.378906 112.804688 26.613281 113.433594 26.917969 C 114.066406 27.21875 114.769531 27.582031 115.542969 28.003906 C 116.320312 28.425781 117.152344 28.902344 118.042969 29.429688 C 118.929688 29.960938 119.859375 30.53125 120.832031 31.144531 C 121.800781 31.761719 122.792969 32.40625 123.804688 33.082031 C 124.816406 33.757812 125.832031 34.449219 126.847656 35.160156 C 127.867188 35.871094 128.867188 36.589844 129.847656 37.308594 C 130.832031 38.027344 131.777344 38.738281 132.683594 39.4375 C 133.59375 40.140625 134.449219 40.816406 135.25 41.46875 C 136.054688 42.125 136.785156 42.742188 137.449219 43.328125 C 138.113281 43.910156 138.695312 44.445312 139.191406 44.933594 C 139.691406 45.421875 140.097656 45.855469 140.414062 46.234375 C 140.730469 46.609375 140.949219 46.921875 141.070312 47.171875 C 141.191406 47.421875 141.210938 47.601562 141.132812 47.714844 Z M 141.132812 47.714844 " fill-opacity="1" fill-rule="nonzero"/><path fill="#9d5977" d="M 136.917969 43.785156 C 136.574219 44.273438 136.214844 44.746094 135.84375 45.199219 C 135.46875 45.652344 135.089844 46.082031 134.699219 46.484375 C 134.3125 46.882812 133.921875 47.25 133.53125 47.585938 C 133.140625 47.917969 132.757812 48.210938 132.382812 48.464844 C 132.007812 48.71875 131.648438 48.925781 131.300781 49.085938 C 130.953125 49.25 130.625 49.363281 130.320312 49.429688 C 130.015625 49.496094 129.738281 49.511719 129.484375 49.476562 C 129.234375 49.441406 129.015625 49.359375 128.828125 49.226562 C 128.636719 49.097656 128.484375 48.917969 128.367188 48.695312 C 128.25 48.46875 128.167969 48.203125 128.125 47.894531 C 128.082031 47.585938 128.078125 47.238281 128.113281 46.859375 C 128.148438 46.476562 128.21875 46.066406 128.328125 45.628906 C 128.4375 45.1875 128.582031 44.730469 128.761719 44.25 C 128.941406 43.769531 129.15625 43.277344 129.398438 42.773438 C 129.644531 42.273438 129.917969 41.769531 130.214844 41.261719 C 130.515625 40.757812 130.835938 40.261719 131.179688 39.773438 C 131.523438 39.28125 131.878906 38.8125 132.253906 38.355469 C 132.625 37.902344 133.007812 37.476562 133.398438 37.074219 C 133.785156 36.671875 134.175781 36.304688 134.566406 35.96875 C 134.953125 35.636719 135.335938 35.34375 135.710938 35.089844 C 136.089844 34.839844 136.449219 34.628906 136.796875 34.46875 C 137.144531 34.304688 137.46875 34.191406 137.773438 34.125 C 138.082031 34.0625 138.359375 34.046875 138.609375 34.078125 C 138.863281 34.113281 139.082031 34.195312 139.269531 34.328125 C 139.457031 34.460938 139.613281 34.636719 139.730469 34.863281 C 139.847656 35.085938 139.925781 35.355469 139.96875 35.664062 C 140.011719 35.972656 140.019531 36.316406 139.984375 36.699219 C 139.949219 37.078125 139.878906 37.488281 139.769531 37.929688 C 139.660156 38.367188 139.515625 38.828125 139.335938 39.308594 C 139.152344 39.785156 138.941406 40.277344 138.695312 40.78125 C 138.453125 41.28125 138.179688 41.785156 137.878906 42.292969 C 137.582031 42.796875 137.257812 43.296875 136.917969 43.785156 Z M 136.917969 43.785156 " fill-opacity="1" fill-rule="nonzero"/><path fill="#9d5977" d="M 121.507812 33.289062 C 121.167969 33.777344 120.808594 34.25 120.4375 34.703125 C 120.0625 35.160156 119.683594 35.585938 119.292969 35.988281 C 118.902344 36.390625 118.515625 36.757812 118.125 37.089844 C 117.734375 37.425781 117.351562 37.71875 116.976562 37.96875 C 116.601562 38.222656 116.238281 38.429688 115.894531 38.59375 C 115.546875 38.753906 115.21875 38.867188 114.914062 38.933594 C 114.609375 39 114.332031 39.015625 114.078125 38.980469 C 113.828125 38.949219 113.609375 38.867188 113.417969 38.734375 C 113.230469 38.601562 113.078125 38.425781 112.960938 38.199219 C 112.84375 37.976562 112.761719 37.707031 112.71875 37.398438 C 112.675781 37.089844 112.671875 36.746094 112.707031 36.363281 C 112.738281 35.980469 112.8125 35.570312 112.921875 35.132812 C 113.03125 34.695312 113.175781 34.234375 113.355469 33.753906 C 113.535156 33.273438 113.75 32.785156 113.992188 32.28125 C 114.238281 31.777344 114.511719 31.273438 114.808594 30.769531 C 115.109375 30.261719 115.429688 29.765625 115.773438 29.277344 C 116.117188 28.789062 116.472656 28.316406 116.847656 27.863281 C 117.21875 27.40625 117.601562 26.980469 117.988281 26.578125 C 118.378906 26.175781 118.769531 25.808594 119.15625 25.476562 C 119.546875 25.140625 119.929688 24.847656 120.304688 24.597656 C 120.679688 24.34375 121.042969 24.136719 121.390625 23.972656 C 121.738281 23.8125 122.0625 23.699219 122.367188 23.632812 C 122.671875 23.566406 122.953125 23.550781 123.203125 23.585938 C 123.453125 23.617188 123.675781 23.703125 123.863281 23.832031 C 124.050781 23.964844 124.203125 24.144531 124.324219 24.367188 C 124.441406 24.59375 124.519531 24.859375 124.5625 25.167969 C 124.605469 25.476562 124.609375 25.820312 124.578125 26.203125 C 124.542969 26.585938 124.472656 26.996094 124.363281 27.433594 C 124.253906 27.875 124.109375 28.332031 123.925781 28.8125 C 123.746094 29.292969 123.535156 29.785156 123.289062 30.285156 C 123.042969 30.789062 122.773438 31.292969 122.472656 31.796875 C 122.171875 32.304688 121.851562 32.800781 121.507812 33.289062 Z M 121.507812 33.289062 " fill-opacity="1" fill-rule="nonzero"/><path fill="#9d5977" d="M 36.785156 86.195312 C 36.707031 86.308594 36.53125 86.351562 36.253906 86.320312 C 35.976562 86.292969 35.609375 86.195312 35.144531 86.027344 C 34.683594 85.859375 34.136719 85.625 33.507812 85.324219 C 32.875 85.023438 32.171875 84.660156 31.398438 84.238281 C 30.621094 83.8125 29.789062 83.339844 28.898438 82.808594 C 28.011719 82.28125 27.082031 81.707031 26.109375 81.09375 C 25.140625 80.480469 24.148438 79.835938 23.136719 79.160156 C 22.125 78.484375 21.109375 77.789062 20.09375 77.078125 C 19.074219 76.367188 18.074219 75.652344 17.09375 74.933594 C 16.113281 74.210938 15.164062 73.503906 14.257812 72.800781 C 13.347656 72.101562 12.492188 71.425781 11.691406 70.769531 C 10.886719 70.117188 10.15625 69.496094 9.492188 68.914062 C 8.828125 68.332031 8.25 67.796875 7.75 67.304688 C 7.25 66.816406 6.84375 66.382812 6.527344 66.007812 C 6.210938 65.632812 5.992188 65.320312 5.871094 65.070312 C 5.75 64.820312 5.730469 64.636719 5.808594 64.523438 C 5.886719 64.414062 6.066406 64.371094 6.339844 64.398438 C 6.617188 64.425781 6.984375 64.523438 7.449219 64.691406 C 7.910156 64.859375 8.457031 65.09375 9.089844 65.394531 C 9.71875 65.699219 10.421875 66.058594 11.195312 66.484375 C 11.972656 66.90625 12.804688 67.382812 13.695312 67.910156 C 14.582031 68.441406 15.511719 69.011719 16.484375 69.625 C 17.453125 70.238281 18.445312 70.882812 19.457031 71.558594 C 20.46875 72.234375 21.484375 72.929688 22.503906 73.640625 C 23.519531 74.351562 24.519531 75.066406 25.5 75.789062 C 26.484375 76.507812 27.429688 77.21875 28.335938 77.917969 C 29.246094 78.617188 30.101562 79.296875 30.90625 79.949219 C 31.707031 80.605469 32.4375 81.222656 33.101562 81.804688 C 33.765625 82.386719 34.347656 82.925781 34.84375 83.414062 C 35.34375 83.902344 35.753906 84.335938 36.066406 84.710938 C 36.382812 85.089844 36.601562 85.402344 36.722656 85.652344 C 36.84375 85.902344 36.867188 86.082031 36.785156 86.195312 Z M 36.785156 86.195312 " fill-opacity="1" fill-rule="nonzero"/><path fill="#9d5977" d="M 32.570312 82.265625 C 32.226562 82.753906 31.867188 83.226562 31.496094 83.679688 C 31.121094 84.132812 30.742188 84.5625 30.351562 84.960938 C 29.964844 85.363281 29.574219 85.730469 29.183594 86.066406 C 28.796875 86.398438 28.414062 86.691406 28.035156 86.945312 C 27.660156 87.195312 27.300781 87.40625 26.953125 87.566406 C 26.605469 87.730469 26.28125 87.84375 25.972656 87.910156 C 25.667969 87.972656 25.390625 87.988281 25.140625 87.957031 C 24.886719 87.921875 24.667969 87.839844 24.480469 87.707031 C 24.289062 87.574219 24.136719 87.398438 24.019531 87.171875 C 23.902344 86.949219 23.820312 86.683594 23.777344 86.371094 C 23.734375 86.0625 23.730469 85.71875 23.765625 85.335938 C 23.800781 84.957031 23.871094 84.546875 23.980469 84.105469 C 24.089844 83.667969 24.234375 83.207031 24.414062 82.726562 C 24.59375 82.25 24.808594 81.757812 25.050781 81.253906 C 25.296875 80.753906 25.570312 80.25 25.867188 79.742188 C 26.167969 79.238281 26.488281 78.738281 26.832031 78.25 C 27.175781 77.761719 27.535156 77.289062 27.90625 76.835938 C 28.28125 76.382812 28.660156 75.953125 29.050781 75.550781 C 29.4375 75.152344 29.828125 74.785156 30.21875 74.449219 C 30.605469 74.117188 30.988281 73.824219 31.363281 73.570312 C 31.742188 73.316406 32.101562 73.109375 32.449219 72.949219 C 32.796875 72.785156 33.121094 72.671875 33.425781 72.605469 C 33.734375 72.539062 34.011719 72.523438 34.261719 72.558594 C 34.515625 72.59375 34.734375 72.675781 34.921875 72.808594 C 35.109375 72.9375 35.265625 73.117188 35.382812 73.339844 C 35.5 73.566406 35.582031 73.832031 35.621094 74.140625 C 35.664062 74.449219 35.671875 74.796875 35.636719 75.175781 C 35.601562 75.558594 35.53125 75.96875 35.421875 76.40625 C 35.3125 76.847656 35.167969 77.304688 34.988281 77.785156 C 34.804688 78.265625 34.59375 78.757812 34.347656 79.261719 C 34.105469 79.761719 33.832031 80.265625 33.53125 80.773438 C 33.234375 81.277344 32.914062 81.773438 32.570312 82.265625 Z M 32.570312 82.265625 " fill-opacity="1" fill-rule="nonzero"/><path fill="#9d5977" d="M 17.164062 71.769531 C 16.820312 72.257812 16.460938 72.730469 16.089844 73.183594 C 15.714844 73.636719 15.335938 74.066406 14.945312 74.46875 C 14.558594 74.871094 14.167969 75.238281 13.777344 75.570312 C 13.386719 75.902344 13.003906 76.195312 12.628906 76.449219 C 12.253906 76.703125 11.894531 76.910156 11.546875 77.074219 C 11.199219 77.234375 10.871094 77.347656 10.566406 77.414062 C 10.261719 77.480469 9.984375 77.496094 9.730469 77.460938 C 9.480469 77.429688 9.261719 77.34375 9.070312 77.214844 C 8.882812 77.082031 8.730469 76.902344 8.613281 76.679688 C 8.496094 76.453125 8.414062 76.1875 8.371094 75.878906 C 8.328125 75.570312 8.324219 75.222656 8.359375 74.84375 C 8.390625 74.460938 8.464844 74.050781 8.574219 73.613281 C 8.683594 73.171875 8.828125 72.714844 9.007812 72.234375 C 9.1875 71.753906 9.402344 71.261719 9.644531 70.761719 C 9.890625 70.257812 10.164062 69.753906 10.460938 69.25 C 10.761719 68.742188 11.082031 68.246094 11.425781 67.757812 C 11.769531 67.265625 12.125 66.796875 12.5 66.339844 C 12.871094 65.886719 13.253906 65.460938 13.640625 65.058594 C 14.03125 64.65625 14.421875 64.289062 14.808594 63.957031 C 15.199219 63.621094 15.582031 63.328125 15.957031 63.074219 C 16.332031 62.824219 16.695312 62.617188 17.042969 62.453125 C 17.390625 62.292969 17.714844 62.175781 18.019531 62.113281 C 18.324219 62.046875 18.605469 62.03125 18.855469 62.0625 C 19.109375 62.097656 19.328125 62.179688 19.515625 62.3125 C 19.703125 62.445312 19.855469 62.621094 19.976562 62.847656 C 20.09375 63.070312 20.171875 63.339844 20.214844 63.648438 C 20.257812 63.957031 20.261719 64.300781 20.230469 64.683594 C 20.195312 65.0625 20.125 65.472656 20.015625 65.914062 C 19.90625 66.351562 19.761719 66.8125 19.578125 67.292969 C 19.398438 67.773438 19.1875 68.261719 18.941406 68.765625 C 18.699219 69.269531 18.425781 69.773438 18.125 70.277344 C 17.828125 70.78125 17.503906 71.28125 17.164062 71.769531 Z M 17.164062 71.769531 " fill-opacity="1" fill-rule="nonzero"/><path fill="#9d5977" d="M 71.894531 64.433594 C 71.644531 64.972656 71.359375 65.496094 71.046875 65.996094 C 70.734375 66.496094 70.398438 66.964844 70.035156 67.40625 C 69.675781 67.847656 69.296875 68.25 68.902344 68.613281 C 68.507812 68.976562 68.101562 69.296875 67.6875 69.570312 C 67.273438 69.839844 66.855469 70.0625 66.441406 70.234375 C 66.023438 70.40625 65.609375 70.523438 65.207031 70.585938 C 64.800781 70.652344 64.410156 70.660156 64.035156 70.613281 C 63.660156 70.566406 63.304688 70.464844 62.96875 70.308594 C 62.636719 70.15625 62.332031 69.949219 62.054688 69.691406 C 61.777344 69.433594 61.53125 69.128906 61.320312 68.777344 C 61.109375 68.425781 60.933594 68.035156 60.796875 67.605469 C 60.660156 67.175781 60.5625 66.714844 60.507812 66.222656 C 60.449219 65.730469 60.433594 65.214844 60.457031 64.679688 C 60.484375 64.144531 60.546875 63.597656 60.652344 63.035156 C 60.761719 62.476562 60.90625 61.917969 61.085938 61.355469 C 61.269531 60.792969 61.488281 60.242188 61.738281 59.703125 C 61.992188 59.160156 62.277344 58.640625 62.589844 58.140625 C 62.902344 57.636719 63.238281 57.167969 63.597656 56.726562 C 63.960938 56.285156 64.339844 55.882812 64.734375 55.519531 C 65.128906 55.15625 65.535156 54.839844 65.949219 54.566406 C 66.363281 54.292969 66.777344 54.070312 67.195312 53.898438 C 67.613281 53.726562 68.023438 53.609375 68.429688 53.546875 C 68.835938 53.484375 69.222656 53.472656 69.601562 53.519531 C 69.976562 53.566406 70.332031 53.667969 70.664062 53.824219 C 71 53.980469 71.304688 54.1875 71.582031 54.445312 C 71.859375 54.703125 72.105469 55.007812 72.316406 55.355469 C 72.527344 55.707031 72.699219 56.097656 72.835938 56.527344 C 72.976562 56.957031 73.070312 57.417969 73.128906 57.910156 C 73.1875 58.402344 73.203125 58.917969 73.175781 59.453125 C 73.152344 59.992188 73.085938 60.539062 72.980469 61.097656 C 72.875 61.65625 72.730469 62.21875 72.546875 62.777344 C 72.367188 63.339844 72.148438 63.890625 71.894531 64.433594 Z M 71.894531 64.433594 " fill-opacity="1" fill-rule="nonzero"/></g></g></g><g fill="#9d5977" fill-opacity="1"><g transform="translate(117.226272, 200.249987)"><g><path d="M 12.230469 -15.398438 L 12.230469 -20.589844 C 12.230469 -20.589844 11.328125 -18.367188 6.929688 -18.367188 L 4.15625 -18.367188 L 4.15625 -28.640625 C 4.15625 -29.585938 4.265625 -30.246094 4.421875 -30.664062 L 9.8125 -30.664062 C 20.105469 -30.664062 21.316406 -27.34375 21.316406 -27.34375 L 20.414062 -31.542969 L 0.550781 -31.542969 C 0.550781 -31.542969 1.472656 -31.238281 1.472656 -28.617188 L 1.472656 -3.078125 C 1.472656 -0.460938 0.550781 -0.0234375 0.550781 -0.0234375 L 5.058594 -0.0234375 C 5.058594 -0.0234375 4.15625 -0.460938 4.15625 -3.078125 L 4.15625 -17.621094 L 6.929688 -17.621094 C 11.328125 -17.621094 12.230469 -15.398438 12.230469 -15.398438 Z M 12.230469 -15.398438 "/></g></g></g><g fill="#9d5977" fill-opacity="1"><g transform="translate(144.810296, 200.249987)"><g><path d="M 3.320312 -12.296875 L 3.320312 -12.582031 L 22.832031 -12.582031 C 22.832031 -20.5 18.300781 -23.539062 12.078125 -23.539062 C 5.828125 -23.539062 0.550781 -18.675781 0.550781 -12.1875 C 0.550781 -5.699219 5.367188 0.0234375 12.914062 0.0234375 C 17.839844 0.0234375 21.753906 -3.277344 22.128906 -6.773438 C 20.613281 0.351562 3.476562 1.847656 3.320312 -12.296875 Z M 12.078125 -22.527344 C 17.816406 -22.527344 20.324219 -18.523438 20.324219 -13.265625 L 3.34375 -13.265625 C 3.71875 -18.652344 7.609375 -22.527344 12.078125 -22.527344 Z M 12.078125 -22.527344 "/></g></g></g><g fill="#9d5977" fill-opacity="1"><g transform="translate(173.912048, 200.249987)"><g><path d="M 4.15625 -23.539062 L 0.570312 -22.152344 C 0.570312 -22.152344 1.472656 -21.710938 1.472656 -19.070312 L 1.472656 -2.925781 C 1.472656 -0.308594 0.550781 0 0.550781 0 C 2.925781 0 4.15625 -0.460938 4.15625 -2.597656 Z M 26.375 0 L 30.882812 0 C 30.882812 0 29.984375 -0.285156 29.984375 -2.902344 L 29.960938 -17.753906 C 29.960938 -24.613281 17.621094 -26.527344 17.222656 -16.960938 C 18.609375 -23.78125 27.300781 -24.375 27.300781 -17.972656 C 27.300781 -3.960938 27.300781 -2.925781 27.300781 -2.925781 C 27.300781 -0.308594 26.375 0 26.375 0 Z M 13.460938 0 L 17.972656 0 C 17.972656 0 17.046875 -0.285156 17.046875 -2.902344 L 17.046875 -17.753906 C 17.046875 -24.613281 4.683594 -26.527344 4.3125 -16.960938 C 5.699219 -23.78125 14.386719 -24.375 14.386719 -17.972656 C 14.386719 -3.960938 14.386719 -2.925781 14.386719 -2.925781 C 14.386719 -0.308594 13.460938 0 13.460938 0 Z M 13.460938 0 "/></g></g></g><g fill="#9d5977" fill-opacity="1"><g transform="translate(211.064363, 200.249987)"><g><path d="M 12.230469 -15.398438 L 12.230469 -20.589844 C 12.230469 -20.589844 11.328125 -18.367188 6.929688 -18.367188 L 4.15625 -18.367188 L 4.15625 -28.640625 C 4.15625 -29.585938 4.265625 -30.246094 4.421875 -30.664062 L 9.8125 -30.664062 C 20.105469 -30.664062 21.316406 -27.34375 21.316406 -27.34375 L 20.414062 -31.542969 L 0.550781 -31.542969 C 0.550781 -31.542969 1.472656 -31.238281 1.472656 -28.617188 L 1.472656 -3.078125 C 1.472656 -0.460938 0.550781 -0.0234375 0.550781 -0.0234375 L 5.058594 -0.0234375 C 5.058594 -0.0234375 4.15625 -0.460938 4.15625 -3.078125 L 4.15625 -17.621094 L 6.929688 -17.621094 C 11.328125 -17.621094 12.230469 -15.398438 12.230469 -15.398438 Z M 12.230469 -15.398438 "/></g></g></g><g fill="#9d5977" fill-opacity="1"><g transform="translate(238.648387, 200.249987)"><g><path d="M 2.773438 -29.519531 C 1.5625 -29.519531 0.550781 -28.507812 0.550781 -27.277344 C 0.550781 -26.066406 1.5625 -25.078125 2.773438 -25.078125 C 4.003906 -25.078125 4.992188 -26.066406 4.992188 -27.277344 C 4.992188 -28.507812 4.003906 -29.519531 2.773438 -29.519531 Z M 0.769531 0 L 5.28125 0 C 5.28125 0 4.378906 -0.285156 4.378906 -2.902344 L 4.355469 -23.558594 L 0.769531 -22.171875 C 0.769531 -22.171875 1.695312 -21.734375 1.695312 -19.117188 L 1.695312 -2.925781 C 1.695312 -0.308594 0.769531 0 0.769531 0 Z M 0.769531 0 "/></g></g></g><g fill="#9d5977" fill-opacity="1"><g transform="translate(250.19726, 200.249987)"><g><path d="M 6.402344 -23.539062 L 6.402344 -29.71875 L 2.816406 -28.332031 C 2.816406 -28.332031 3.738281 -27.894531 3.738281 -25.273438 C 3.738281 -25.273438 3.738281 -24.726562 3.738281 -23.539062 L 0.550781 -23.539062 L 0.550781 -22.789062 L 3.738281 -22.789062 C 3.738281 -19.6875 3.738281 -13.527344 3.738281 -3.453125 C 3.738281 -0.460938 5.917969 0 6.621094 0 C 8.050781 0 9.261719 -0.945312 9.261719 -2.375 C 8.886719 -1.429688 6.378906 -0.988281 6.421875 -3.429688 L 6.402344 -22.789062 L 10.25 -22.789062 L 10.25 -23.539062 Z M 6.402344 -23.539062 "/></g></g></g></svg>